<svg width="10" height="16" viewBox="0 0 10 16" fill="none" xmlns="http://www.w3.org/2000/svg">
<path d="M1.00002 3.67C0.998697 3.319 1.06686 2.97121 1.20057 2.64668C1.33428 2.32214 1.5309 2.02728 1.7791 1.77908C2.02729 1.53088 2.32216 1.33426 2.64669 1.20055C2.97123 1.06684 3.31902 0.998682 3.67002 1H6.33002C6.68102 0.998682 7.02881 1.06684 7.35335 1.20055C7.67788 1.33426 7.97275 1.53088 8.22094 1.77908C8.46914 2.02728 8.66576 2.32214 8.79947 2.64668C8.93318 2.97121 9.00134 3.319 9.00002 3.67C8.99963 4.0838 8.90271 4.4918 8.71696 4.86157C8.53121 5.23133 8.26176 5.55266 7.93002 5.8L2.07002 10.2C1.73828 10.4473 1.46883 10.7687 1.28308 11.1384C1.09733 11.5082 1.00041 11.9162 1.00002 12.33C0.998697 12.681 1.06686 13.0288 1.20057 13.3533C1.33428 13.6779 1.5309 13.9727 1.7791 14.2209C2.02729 14.4691 2.32216 14.6657 2.64669 14.7995C2.97123 14.9332 3.31902 15.0013 3.67002 15H6.33002C6.68102 15.0013 7.02881 14.9332 7.35335 14.7995C7.67788 14.6657 7.97275 14.4691 8.22094 14.2209C8.46914 13.9727 8.66576 13.6779 8.79947 13.3533C8.93318 13.0288 9.00134 12.681 9.00002 12.33C8.99963 11.9162 8.90271 11.5082 8.71696 11.1384C8.53121 10.7687 8.26176 10.4473 7.93002 10.2L2.07002 5.8C1.73828 5.55266 1.46883 5.23133 1.28308 4.86157C1.09733 4.4918 1.00041 4.0838 1.00002 3.67Z" stroke="#000D26" stroke-width="1.5" stroke-linecap="round" stroke-linejoin="round"/>
</svg>
