<svg width="20" height="18" viewBox="0 0 20 18" fill="none" xmlns="http://www.w3.org/2000/svg">
<path d="M14 0.771301V16.9313C13.9995 16.9927 13.9801 17.0524 13.9446 17.1024C13.909 17.1525 13.859 17.1904 13.8012 17.2111C13.7435 17.2318 13.6807 17.2343 13.6215 17.2182C13.5623 17.2022 13.5094 17.1684 13.47 17.1213L11.53 14.7313C11.4363 14.6145 11.3176 14.5202 11.1826 14.4555C11.0476 14.3907 10.8997 14.3571 10.75 14.3571C10.6003 14.3571 10.4524 14.3907 10.3174 14.4555C10.1824 14.5202 10.0637 14.6145 9.97 14.7313L8.28 16.8213C8.1863 16.9381 8.06757 17.0324 7.93256 17.0971C7.79756 17.1619 7.64974 17.1955 7.5 17.1955C7.35026 17.1955 7.20244 17.1619 7.06744 17.0971C6.93243 17.0324 6.8137 16.9381 6.72 16.8213L5 14.7313C4.9063 14.6145 4.78756 14.5202 4.65256 14.4555C4.51756 14.3907 4.36974 14.3571 4.22 14.3571C4.07026 14.3571 3.92244 14.3907 3.78744 14.4555C3.65244 14.5202 3.5337 14.6145 3.44 14.7313L1.53 17.1213C1.4906 17.1684 1.43772 17.2022 1.37849 17.2182C1.31925 17.2343 1.25652 17.2318 1.19875 17.2111C1.14098 17.1904 1.09095 17.1525 1.05541 17.1024C1.01987 17.0524 1.00053 16.9927 1 16.9313V3.7713C1 2.97565 1.31607 2.21259 1.87868 1.64998C2.44129 1.08737 3.20435 0.771301 4 0.771301H14Z" stroke="#000D26" stroke-width="1.5" stroke-linecap="round" stroke-linejoin="round"/>
<path d="M14 0.771301H17C17.5304 0.771301 18.0391 0.982015 18.4142 1.35709C18.7893 1.73216 19 2.24087 19 2.7713V5.0013C19 5.53173 18.7893 6.04044 18.4142 6.41551C18.0391 6.79059 17.5304 7.0013 17 7.0013H14V0.771301Z" stroke="#000D26" stroke-width="1.5" stroke-linecap="round" stroke-linejoin="round"/>
<path d="M5 5.00131H10" stroke="#000D26" stroke-width="1.5" stroke-linecap="round" stroke-linejoin="round"/>
<path d="M5 8.00131H10" stroke="#000D26" stroke-width="1.5" stroke-linecap="round" stroke-linejoin="round"/>
<path d="M5 11.0013H10" stroke="#000D26" stroke-width="1.5" stroke-linecap="round" stroke-linejoin="round"/>
</svg>
