<svg width="16" height="18" viewBox="0 0 16 18" fill="none" xmlns="http://www.w3.org/2000/svg">
<path d="M2 3.94L2.75 15.06C2.75 15.5904 2.96071 16.0991 3.33579 16.4742C3.71086 16.8493 4.21957 17.06 4.75 17.06H11.25C11.7804 17.06 12.2891 16.8493 12.6642 16.4742C13.0393 16.0991 13.25 15.5904 13.25 15.06L14 3.94" stroke="#000D26" stroke-width="1.5" stroke-linecap="round" stroke-linejoin="round"/>
<path d="M9.5 9.56V14.06" stroke="#000D26" stroke-width="1.5" stroke-linecap="round" stroke-linejoin="round"/>
<path d="M6.5 9.56V14.06" stroke="#000D26" stroke-width="1.5" stroke-linecap="round" stroke-linejoin="round"/>
<path d="M1 3.94H15" stroke="#000D26" stroke-width="1.5" stroke-linecap="round" stroke-linejoin="round"/>
<path d="M10.5 3.94V1.94C10.5 1.67479 10.3946 1.42043 10.2071 1.2329C10.0196 1.04536 9.76522 0.940002 9.5 0.940002H6.5C6.23478 0.940002 5.98043 1.04536 5.79289 1.2329C5.60536 1.42043 5.5 1.67479 5.5 1.94V3.94" stroke="#000D26" stroke-width="1.5" stroke-linecap="round" stroke-linejoin="round"/>
</svg>
