<svg width="18" height="18" viewBox="0 0 18 18" fill="none" xmlns="http://www.w3.org/2000/svg">
<path d="M1.83 11.93L11.93 1.83001C12.023 1.73628 12.1336 1.66189 12.2554 1.61112C12.3773 1.56035 12.508 1.53421 12.64 1.53421C12.772 1.53421 12.9027 1.56035 13.0246 1.61112C13.1464 1.66189 13.257 1.73628 13.35 1.83001L16.17 4.65001C16.2637 4.74297 16.3381 4.85357 16.3889 4.97543C16.4397 5.09729 16.4658 5.228 16.4658 5.36001C16.4658 5.49202 16.4397 5.62273 16.3889 5.74459C16.3381 5.86644 16.2637 5.97705 16.17 6.07001L6.07 16.17C5.97738 16.2645 5.86694 16.3397 5.74506 16.3912C5.62319 16.4427 5.49231 16.4695 5.36 16.47H2.53C2.26478 16.47 2.01043 16.3647 1.82289 16.1771C1.63536 15.9896 1.53 15.7352 1.53 15.47V12.64C1.53055 12.5077 1.55735 12.3768 1.60884 12.2549C1.66034 12.1331 1.73551 12.0226 1.83 11.93Z" stroke="#000D26" stroke-width="1.5" stroke-linecap="round" stroke-linejoin="round"/>
<path d="M9.5 4.26001L13.74 8.50001" stroke="#000D26" stroke-width="1.5" stroke-linecap="round" stroke-linejoin="round"/>
</svg>
