<svg width="19" height="16" viewBox="0 0 19 16" fill="none" xmlns="http://www.w3.org/2000/svg">
<path d="M1.5 12.5V3.5C1.5 2.96957 1.71071 2.46086 2.08579 2.08579C2.46086 1.71071 2.96957 1.5 3.5 1.5H7.67C7.93391 1.49979 8.19526 1.55182 8.43897 1.65308C8.68268 1.75434 8.90394 1.90283 9.09 2.09L10.91 3.91C11.0961 4.09717 11.3173 4.24566 11.561 4.34692C11.8047 4.44818 12.0661 4.50021 12.33 4.5H15.5C16.0304 4.5 16.5391 4.71071 16.9142 5.08579C17.2893 5.46086 17.5 5.96957 17.5 6.5V12.5C17.5 13.0304 17.2893 13.5391 16.9142 13.9142C16.5391 14.2893 16.0304 14.5 15.5 14.5H3.5C2.96957 14.5 2.46086 14.2893 2.08579 13.9142C1.71071 13.5391 1.5 13.0304 1.5 12.5Z" stroke="#000D26" stroke-width="1.5" stroke-linecap="round" stroke-linejoin="round"/>
<path d="M9.5 6.76001V12" stroke="#000D26" stroke-width="1.5" stroke-linecap="round" stroke-linejoin="round"/>
<path d="M7.92993 8.33001L9.49993 6.76001L11.0699 8.33001" stroke="#000D26" stroke-width="1.5" stroke-linecap="round" stroke-linejoin="round"/>
</svg>
