<svg width="13" height="16" viewBox="0 0 13 16" fill="none" xmlns="http://www.w3.org/2000/svg">
<path d="M4.25 8.25483L1.25 4.82483C1.08922 4.64253 1.00035 4.4079 1 4.16483V2.01483C1 1.74962 1.10536 1.49526 1.29289 1.30772C1.48043 1.12019 1.73478 1.01483 2 1.01483H11C11.2652 1.01483 11.5196 1.12019 11.7071 1.30772C11.8946 1.49526 12 1.74962 12 2.01483V4.16483C11.9997 4.4079 11.9108 4.64253 11.75 4.82483L8.75 8.25483C8.58922 8.43714 8.50035 8.67176 8.5 8.91483V12.4848C8.5 12.6401 8.46386 12.7932 8.39443 12.932C8.325 13.0709 8.2242 13.1917 8.1 13.2848L6.1 14.7848C5.95347 14.8949 5.77953 14.9625 5.59716 14.9804C5.4148 14.9983 5.23103 14.9657 5.06591 14.8862C4.9008 14.8068 4.76069 14.6835 4.66089 14.5298C4.56109 14.3761 4.50544 14.198 4.5 14.0148V8.91483C4.49965 8.67176 4.41078 8.43714 4.25 8.25483Z" stroke="#000D26" stroke-width="1.5" stroke-linecap="round" stroke-linejoin="round"/>
</svg>
