<svg width="24" height="24" viewBox="0 0 24 24" fill="none" xmlns="http://www.w3.org/2000/svg">
<path d="M14.67 10V8.67C14.67 8.31461 14.5288 7.97378 14.2775 7.72248C14.0262 7.47118 13.6853 7.33 13.33 7.33H10.67C10.3146 7.33 9.97373 7.47118 9.72243 7.72248C9.47113 7.97378 9.32996 8.31461 9.32996 8.67V9.33C9.32995 9.53817 9.37881 9.74343 9.4726 9.92928C9.56639 10.1151 9.70249 10.2764 9.86996 10.4L14.13 13.6C14.2974 13.7236 14.4335 13.8849 14.5273 14.0707C14.6211 14.2566 14.67 14.4618 14.67 14.67V15.33C14.67 15.6854 14.5288 16.0262 14.2775 16.2775C14.0262 16.5288 13.6853 16.67 13.33 16.67H10.67C10.3146 16.67 9.97373 16.5288 9.72243 16.2775C9.47113 16.0262 9.32996 15.6854 9.32996 15.33V14" stroke="#000D26" stroke-width="1.5" stroke-linecap="round" stroke-linejoin="round"/>
<path d="M12 6V18" stroke="#000D26" stroke-width="1.5" stroke-linecap="round" stroke-linejoin="round"/>
<path d="M17 3H7C4.79086 3 3 4.79086 3 7V17C3 19.2091 4.79086 21 7 21H17C19.2091 21 21 19.2091 21 17V7C21 4.79086 19.2091 3 17 3Z" stroke="#000D26" stroke-width="1.5" stroke-linecap="round" stroke-linejoin="round"/>
</svg>
