<svg width="17" height="18" viewBox="0 0 17 18" fill="none" xmlns="http://www.w3.org/2000/svg">
<path d="M5.5 1.5H2.5C1.67157 1.5 1 2.17157 1 3V6C1 6.82843 1.67157 7.5 2.5 7.5H5.5C6.32843 7.5 7 6.82843 7 6V3C7 2.17157 6.32843 1.5 5.5 1.5Z" stroke="#000D26" stroke-width="1.5" stroke-linecap="round" stroke-linejoin="round"/>
<path d="M14.5 1.5H11.5C10.6716 1.5 10 2.17157 10 3V6C10 6.82843 10.6716 7.5 11.5 7.5H14.5C15.3284 7.5 16 6.82843 16 6V3C16 2.17157 15.3284 1.5 14.5 1.5Z" stroke="#000D26" stroke-width="1.5" stroke-linecap="round" stroke-linejoin="round"/>
<path d="M5.5 10.5H2.5C1.67157 10.5 1 11.1716 1 12V15C1 15.8284 1.67157 16.5 2.5 16.5H5.5C6.32843 16.5 7 15.8284 7 15V12C7 11.1716 6.32843 10.5 5.5 10.5Z" stroke="#000D26" stroke-width="1.5" stroke-linecap="round" stroke-linejoin="round"/>
<path d="M14.5 10.5H11.5C10.6716 10.5 10 11.1716 10 12V15C10 15.8284 10.6716 16.5 11.5 16.5H14.5C15.3284 16.5 16 15.8284 16 15V12C16 11.1716 15.3284 10.5 14.5 10.5Z" stroke="#000D26" stroke-width="1.5" stroke-linecap="round" stroke-linejoin="round"/>
</svg>
