<svg width="19" height="15" viewBox="0 0 19 15" fill="none" xmlns="http://www.w3.org/2000/svg">
<path d="M6.70996 14.81C7.26225 14.81 7.70996 14.3623 7.70996 13.81C7.70996 13.2577 7.26225 12.81 6.70996 12.81C6.15768 12.81 5.70996 13.2577 5.70996 13.81C5.70996 14.3623 6.15768 14.81 6.70996 14.81Z" fill="#000D26"/>
<path d="M14.71 14.81C15.2622 14.81 15.71 14.3623 15.71 13.81C15.71 13.2577 15.2622 12.81 14.71 12.81C14.1577 12.81 13.71 13.2577 13.71 13.81C13.71 14.3623 14.1577 14.81 14.71 14.81Z" fill="#000D26"/>
<path d="M1 1.19H2.73C3.10252 1.19037 3.46175 1.32843 3.73864 1.57763C4.01553 1.82683 4.19053 2.16958 4.23 2.54L4.96 9.84C4.9951 10.2122 5.16881 10.5575 5.44666 10.8076C5.72451 11.0577 6.08621 11.1942 6.46 11.19H15.76C16.1283 11.1899 16.4838 11.0543 16.7585 10.809C17.0333 10.5638 17.2083 10.226 17.25 9.86L17.92 3.86C17.9437 3.65255 17.9238 3.44244 17.8617 3.2431C17.7995 3.04377 17.6964 2.85962 17.559 2.70242C17.4216 2.54522 17.2528 2.41845 17.0636 2.33021C16.8743 2.24198 16.6688 2.19422 16.46 2.19H4.19" stroke="#000D26" stroke-width="1.5" stroke-linecap="round" stroke-linejoin="round"/>
<path d="M8.45996 6.96002L10.24 8.74002L14.15 4.83002" stroke="#000D26" stroke-width="1.5" stroke-linecap="round" stroke-linejoin="round"/>
</svg>
