<svg width="18" height="20" viewBox="0 0 18 20" fill="none" xmlns="http://www.w3.org/2000/svg">
<path d="M6 9.62404L8.19 11.814L13 7.00404" stroke="#000D26" stroke-width="1.5" stroke-linecap="round" stroke-linejoin="round"/>
<path d="M10 18.524L9 19.094L8 18.524C5.8709 17.2948 4.10304 15.5266 2.87423 13.3972C1.64543 11.2679 0.99901 8.8525 1 6.39403C1.00036 6.04331 1.09294 5.69884 1.26846 5.39519C1.44398 5.09155 1.69626 4.83939 2 4.66403L8.08 1.15403C8.35938 0.991552 8.67681 0.90596 9 0.90596C9.32319 0.90596 9.64062 0.991552 9.92 1.15403L16 4.66403C16.3037 4.83939 16.556 5.09155 16.7315 5.39519C16.9071 5.69884 16.9996 6.04331 17 6.39403C17.001 8.8525 16.3546 11.2679 15.1258 13.3972C13.897 15.5266 12.1291 17.2948 10 18.524Z" stroke="#000D26" stroke-width="1.5" stroke-linecap="round" stroke-linejoin="round"/>
</svg>
